<?xml version="1.0" encoding="utf-8"?>
<!-- Generator: Adobe Illustrator 20.1.0, SVG Export Plug-In . SVG Version: 6.00 Build 0)  -->
<svg version="1.1" id="Layer_1" xmlns="http://www.w3.org/2000/svg" xmlns:xlink="http://www.w3.org/1999/xlink" x="0px" y="0px"
	 viewBox="0 0 280 206" style="enable-background:new 0 0 280 206;" xml:space="preserve">
<style type="text/css">
	.st0{fill:#FFFFFF;}
	.st1{fill:#15C8A0;}
</style>
<g>
	<path class="st0" d="M89.7,171.6c0.1,0.3,0,0.6,0.4,0.7c0,0,0,0.2,0,0.3c0,1.8,0,3.5,0,5.3c0,0.3-0.3,0.5-0.5,0.6c0,0-0.1,0-0.1,0
		c-4.6,0-9.2,0-13.8,0c-0.4,0-0.6-0.2-0.8-0.5c-0.2-0.3-0.5-0.5-0.8-0.6c-0.3-0.1-0.5-0.4-0.7-0.6c-0.1-0.1-0.2-0.2-0.4-0.3
		c-0.4-0.2-0.6-0.7-1.1-0.8c-0.1,0-0.3-0.2-0.4-0.3c-0.1-0.4-0.6-0.5-0.8-0.8c-0.2-0.2-0.5-0.3-0.7-0.5c-0.2-0.1-0.3-0.3-0.5-0.5
		c-0.2-0.1-0.3-0.3-0.5-0.4c-0.3-0.2-0.7-0.4-1-0.7c-0.2-0.1-0.3-0.3-0.4-0.5c-0.1-0.1-0.2-0.2-0.4-0.3c-0.2-0.1-0.3-0.3-0.5-0.4
		c-0.4-0.2-0.8-0.5-1.1-0.9c-0.1-0.1-0.2-0.2-0.4-0.3c-0.2-0.1-0.4-0.3-0.7-0.4c-0.2-0.1-0.3-0.3-0.5-0.4c-0.3-0.2-0.5-0.5-0.8-0.8
		c-0.3-0.4-0.8-0.5-1.2-0.9c-0.4-0.4-0.8-0.9-1.4-1.1c-0.2-0.1-0.3-0.3-0.4-0.4c-0.2-0.2-0.3-0.3-0.5-0.4c-0.2-0.1-0.3-0.3-0.5-0.4
		c-0.1-0.1-0.2-0.2-0.3-0.2c-0.2-0.2-0.4-0.3-0.5-0.5c-0.1-0.1-0.2-0.3-0.3-0.4c-0.4-0.3-0.8-0.5-1.1-0.7c-0.3-0.2-0.5-0.5-0.7-0.8
		c-0.1-0.1-0.2-0.2-0.4-0.3c-0.3-0.1-0.4-0.5-0.9-0.4c0,5.5,0,10.9,0,16.4c-2.1,0-4.1,0-6.2,0c0-0.2,0-0.3,0-0.5
		c-0.3,0-0.3-0.2-0.3-0.5c0-8.5,0-17,0-25.5c0-0.1,0-0.3,0-0.5c11.5,0,23,0,34.5,0c0-4.5,0-8.9,0-13.3c-11.4,0-22.9,0-34.3,0
		c-0.2-0.4-0.3-0.7-0.4-1.1c-0.1-0.4,0-0.8,0-1.2c0-1.4,0-2.7,0-4.1c0-0.1,0-0.3,0-0.5c0.2,0,0.4-0.1,0.7-0.1c13.3,0,26.6,0,39.9,0
		c0.3,0,0.5,0,0.5,0.4c0,0,0,0.1,0,0.1c0.4,0.2,0.3,0.5,0.3,0.8c0,8.3,0,16.6,0,24.9c0,0.3,0,0.5,0,0.8c-0.2,0-0.3,0-0.5,0
		c-9,0-18,0-27,0c-0.1,0-0.3,0-0.4,0c-0.1,0-0.2,0.1-0.3,0.1c0.1,0.1,0.1,0.1,0.2,0.2c0.2,0.2,0.3,0.4,0.5,0.5
		c0.2,0.1,0.4,0.2,0.5,0.4c0.2,0.2,0.4,0.4,0.7,0.6c0.2,0.1,0.4,0.3,0.5,0.4c0.1,0.1,0.3,0.2,0.4,0.3c0.3,0.2,0.5,0.4,0.8,0.6
		c0.2,0.1,0.3,0.3,0.5,0.5c0.1,0.1,0.3,0.3,0.4,0.4c0.1,0.1,0.2,0.2,0.3,0.3c0.5,0.1,0.7,0.6,1.1,0.9c0.4,0.2,0.6,0.7,1.1,0.8
		c0.2,0,0.3,0.3,0.4,0.4c0.1,0.1,0.2,0.3,0.3,0.4c0.2,0.1,0.4,0.3,0.6,0.4c0.2,0.2,0.4,0.4,0.6,0.6c0.3,0.2,0.6,0.5,0.9,0.7
		c0.3,0.3,0.7,0.6,1,0.9c0.3,0.2,0.7,0.4,0.8,0.7c0.3,0.4,0.7,0.5,1,0.8c0.2,0.3,0.6,0.5,0.9,0.7c0.4,0.4,0.9,0.7,1.3,1.1
		c0.4,0.4,0.9,0.7,1.6,0.7c3.7-0.1,7.4,0,11,0C89.3,171.6,89.5,171.6,89.7,171.6z"/>
	<path class="st0" d="M190.2,131.2c0.2,0,0.4,0,0.6,0c13.3,0,26.6,0,40,0c0.3,0,0.5,0,0.5,0.4c0,0,0,0.1,0,0.1
		c0.4,0.2,0.2,0.5,0.2,0.8c0,1.6,0,3.3,0,4.9c0,0.2,0,0.4,0,0.6c-11.6,0-23.2,0-34.8,0c0,0.2,0,0.3,0,0.4c0,10.8,0,21.6,0,32.4
		c0,0.5,0.2,0.7,0.7,0.7c8.9,0,17.9,0,26.8,0c0.5,0,0.7-0.2,0.7-0.7c0-4.1,0-8.2,0-12.2c0-0.1,0-0.2,0-0.4c-4.6,0-9.3,0-13.9,0
		c-0.1-0.3,0-0.6-0.3-0.8c-0.1,0,0-0.2,0-0.3c0-1.9,0-3.8,0-5.6c0,0,0-0.1,0-0.1c6.8,0,13.6,0,20.3,0c0.2,0.3,0.3,0.5,0.4,0.7
		c0,0.1,0,0.2,0,0.3c0,8.5,0,16.9,0,25.4c0,0.4-0.2,0.6-0.6,0.6c-0.1,0-0.1,0-0.2,0c-13.1,0-26.3,0-39.4,0c-0.6,0-0.6-0.1-0.9-0.6
		c-0.3-0.5-0.2-1-0.2-1.5c0-14.8,0-29.6,0-44.5C190.2,131.6,190.2,131.4,190.2,131.2z"/>
	<path class="st0" d="M34.8,158.2c-4.7,0-9.3,0-13.9,0c-0.1-0.3,0.1-0.6-0.3-0.7c0,0-0.1-0.2-0.1-0.3c0-1.9,0-3.8,0-5.7
		c0,0,0-0.1,0-0.1c6.8,0,13.6,0,20.4,0c0.1,0.2,0,0.6,0.3,0.7c0,0,0,0.2,0,0.3c0,8.5,0,17,0,25.4c0,0.5,0,0.6-0.6,0.6
		c-13.3,0-26.5,0-39.8,0c-0.4,0-0.6-0.2-0.7-0.6c0-0.1-0.1-0.2-0.2-0.3c0-0.1-0.1-0.1-0.1-0.2c0-0.1,0-0.2,0-0.3c0-15,0-30.1,0-45.1
		c0-0.2,0-0.3,0-0.6c0.2,0,0.4-0.1,0.6-0.1c13.3,0,26.6,0,40,0c0.3,0,0.5,0,0.4,0.4c0,0,0,0.1,0,0.1c0.4,0.2,0.2,0.5,0.3,0.8
		c0,1.6,0,3.3,0,4.9c0,0.2,0,0.4,0,0.6c-11.6,0-23.2,0-34.8,0c0,0.2,0,0.3,0,0.5c0,10.8,0,21.6,0,32.3c0,0.5,0.3,0.7,0.7,0.7
		c9,0,17.9,0,26.9,0c0.6,0,0.6,0,0.6-0.6c0-4.1,0-8.2,0-12.3C34.8,158.5,34.8,158.4,34.8,158.2z"/>
	<path class="st0" d="M279.7,131.2c0.1,0.3-0.1,0.6,0.3,0.6c0,0,0.1,0.2,0.1,0.3c0,3.7,0,7.3,0,11c0,0.1-0.1,0.3-0.1,0.4
		c0,0.2-0.1,0.4-0.1,0.5c0,8.4,0,16.7,0,25.1c0,2.8,0,5.6,0,8.5c0,0.1,0,0.2,0,0.4c0,0.2-0.1,0.4-0.4,0.3c-0.1,0-0.1,0-0.2,0
		c-13.2,0-26.4,0-39.6,0c-0.3,0-0.4-0.1-0.6-0.4c-0.5-0.8-0.2-1.7-0.2-2.5c0-14.5,0-29.1,0-43.6c0-0.2,0-0.4,0-0.5
		C252.4,131.2,266,131.2,279.7,131.2z M245.2,171.6c9.3,0,18.6,0,27.9,0c0-0.3,0.1-0.5,0.1-0.8c0-4.5,0-9,0-13.5c0-2.2,0-4.4,0-6.6
		c0-0.2,0-0.3,0.1-0.5c0-0.2,0.2-0.3,0.2-0.5c0-3.7,0-7.4,0-11.2c0-0.4-0.1-0.5-0.5-0.5c-0.1,0-0.1,0-0.2,0c-9.1,0-18.1,0-27.2,0
		c-0.1,0-0.3,0-0.4,0C245.2,149.2,245.2,160.4,245.2,171.6z"/>
	<path class="st0" d="M130.5,138c-11.3,0-22.6,0-33.8,0c-0.1-0.2,0.1-0.6-0.3-0.7c0,0,0-0.1,0-0.2c0-2,0-4,0-6c0.2,0,0.3,0,0.4,0
		c11,0,22.1,0,33.1,0c0.3,0,0.8,0.4,0.8,0.8c0,1.9,0,3.9,0,5.8C130.6,137.9,130.5,137.9,130.5,138z"/>
	<path class="st0" d="M96.3,151.4c0.2,0,0.4,0,0.5,0c10.9,0,21.9,0,32.8,0c0.2,0,0.5,0,0.6,0.1c0.2,0.2,0.3,0.5,0.3,0.8
		c0,1.8,0,3.7,0,5.5c0,0.1,0,0.3-0.1,0.4c-11.3,0-22.5,0-33.8,0c-0.1-0.2,0.1-0.6-0.4-0.7c0,0,0-0.1,0-0.2
		C96.3,155.4,96.3,153.4,96.3,151.4z"/>
	<path class="st0" d="M177.5,138c-11.3,0-22.6,0-33.8,0c-0.7-0.8-0.4-1.8-0.5-2.7c0-1.4,0-2.7,0-4.1c0.1,0,0.3,0,0.4,0
		c11,0,22.1,0,33.1,0c0.3,0,0.4,0.1,0.4,0.4c0,0,0,0.1,0,0.1c0.4,0.2,0.2,0.5,0.3,0.8c0,1.6,0,3.3,0,4.9
		C177.5,137.6,177.5,137.8,177.5,138z"/>
	<path class="st0" d="M143.7,158.2c-0.2-0.2-0.3-0.4-0.4-0.6c0-0.1-0.1-0.2-0.1-0.2c0-2,0-4,0-6c11.3,0,22.6,0,33.8,0
		c0.6,0.9,0.4,1.9,0.4,2.9c0,1.1,0,2.1,0,3.2c0,0.2,0,0.4,0,0.7C166.1,158.2,154.9,158.2,143.7,158.2z"/>
	<path class="st0" d="M96.3,171.6c0.2,0,0.4,0,0.6,0c10.9,0,21.9,0,32.8,0c0.6,0,0.9,0.3,0.9,0.8c0,1.8,0,3.7,0,5.5
		c0,0.3-0.1,0.5-0.5,0.5c-11,0-22,0-33,0c-0.3,0-0.4-0.1-0.5-0.4c0-0.1-0.1-0.2-0.1-0.2c-0.3,0-0.2-0.3-0.2-0.4c0-0.9,0-1.7,0-2.6
		C96.3,173.7,96.3,172.7,96.3,171.6z"/>
	<path class="st0" d="M177.1,171.6c0.6,0.8,0.4,1.7,0.4,2.5c0,1.2,0,2.5,0,3.7c0,0.6,0,0.6-0.6,0.6c-10.9,0-21.9,0-32.8,0
		c-0.3,0-0.4-0.1-0.6-0.4c-0.4-0.5-0.3-1-0.3-1.5c0-1.5,0-3,0-4.4c0-0.1,0-0.3,0-0.5C154.5,171.6,165.8,171.6,177.1,171.6z"/>
</g>
<path class="st1" d="M176.1,36.1c-0.5-19.9-17-35.7-36.9-35.2c-19.9,0.5-35.7,17-35.2,36.9c0.5,19.9,36.9,71.9,36.9,71.9
	S176.5,56,176.1,36.1z M140,55.9c-11.5,0-20.9-9.4-20.9-20.9S128.5,14,140,14c11.5,0,20.9,9.4,20.9,20.9S151.5,55.9,140,55.9z"/>
<g>
	<path class="st0" d="M38.3,203v-8.3H41c1.1,0,2,0.3,2.6,1c0.7,0.7,1,1.5,1,2.6v1.1c0,1.1-0.3,1.9-1,2.6s-1.5,1-2.6,1H38.3z
		 M39.5,195.6v6.6H41c0.8,0,1.4-0.3,1.8-0.8c0.4-0.5,0.7-1.2,0.7-2v-1.2c0-0.8-0.2-1.4-0.7-1.9c-0.4-0.5-1.1-0.8-1.8-0.8H39.5z"/>
	<path class="st0" d="M45.9,199.9c0-0.9,0.2-1.7,0.7-2.3c0.5-0.6,1.2-0.9,2-0.9c0.9,0,1.5,0.3,2,0.9c0.5,0.6,0.7,1.3,0.7,2.3v0.1
		c0,0.9-0.2,1.7-0.7,2.3c-0.5,0.6-1.2,0.9-2,0.9c-0.9,0-1.5-0.3-2-0.9c-0.5-0.6-0.7-1.3-0.7-2.3V199.9z M47,200
		c0,0.7,0.1,1.2,0.4,1.6c0.3,0.4,0.7,0.6,1.2,0.6c0.5,0,0.9-0.2,1.2-0.6c0.3-0.4,0.4-1,0.4-1.6v-0.1c0-0.6-0.1-1.2-0.4-1.6
		c-0.3-0.4-0.7-0.6-1.2-0.6c-0.5,0-0.9,0.2-1.2,0.6c-0.3,0.4-0.4,1-0.4,1.6V200z"/>
	<path class="st0" d="M53.8,196.8l0.1,0.9c0.2-0.3,0.5-0.6,0.8-0.8c0.3-0.2,0.7-0.3,1.1-0.3c0.7,0,1.2,0.2,1.6,0.6
		c0.4,0.4,0.5,1,0.5,1.8v3.9h-1.1v-3.9c0-0.5-0.1-0.9-0.3-1.2c-0.2-0.2-0.5-0.3-1-0.3c-0.3,0-0.6,0.1-0.9,0.2
		c-0.2,0.1-0.4,0.3-0.6,0.6v4.6h-1.1v-6.2H53.8z"/>
	<path class="st0" d="M60.5,196.4l-0.6,1.4h-0.6l0-1.4v-1.7h1.1V196.4z"/>
	<path class="st0" d="M63.7,195.3v1.5h1.2v0.8h-1.2v3.8c0,0.3,0.1,0.5,0.2,0.6s0.3,0.2,0.5,0.2c0.1,0,0.1,0,0.2,0
		c0.1,0,0.1,0,0.2-0.1l0.2,0.8c-0.1,0.1-0.2,0.1-0.4,0.2s-0.3,0.1-0.5,0.1c-0.5,0-0.8-0.1-1.1-0.4c-0.3-0.3-0.4-0.7-0.4-1.3v-3.8h-1
		v-0.8h1v-1.5H63.7z"/>
	<path class="st0" d="M69.1,203v-8.3h2.6c1.1,0,2,0.3,2.6,1c0.7,0.7,1,1.5,1,2.6v1.1c0,1.1-0.3,1.9-1,2.6s-1.5,1-2.6,1H69.1z
		 M70.2,195.6v6.6h1.5c0.8,0,1.4-0.3,1.8-0.8c0.4-0.5,0.7-1.2,0.7-2v-1.2c0-0.8-0.2-1.4-0.7-1.9c-0.4-0.5-1.1-0.8-1.8-0.8H70.2z"/>
	<path class="st0" d="M79.8,197.8l-0.6,0c-0.3,0-0.5,0.1-0.8,0.2c-0.2,0.1-0.4,0.3-0.5,0.6v4.4h-1.1v-6.2h1l0.1,1
		c0.2-0.3,0.4-0.6,0.7-0.8c0.3-0.2,0.6-0.3,0.9-0.3c0.1,0,0.2,0,0.2,0c0.1,0,0.1,0,0.2,0L79.8,197.8z"/>
	<path class="st0" d="M82.2,195.3h-1.1v-1.2h1.1V195.3z M82.2,203h-1.1v-6.2h1.1V203z"/>
	<path class="st0" d="M86,201.2l0.1,0.4h0l0.1-0.4l1.4-4.4h1.2l-2.3,6.2h-0.9l-2.3-6.2h1.2L86,201.2z"/>
	<path class="st0" d="M92.4,203.2c-0.9,0-1.6-0.3-2.2-0.9s-0.8-1.3-0.8-2.2v-0.3c0-0.9,0.3-1.6,0.8-2.2s1.1-0.9,1.9-0.9
		c0.8,0,1.4,0.3,1.9,0.8c0.4,0.5,0.6,1.2,0.6,2.1v0.6h-4l0,0c0,0.6,0.1,1.1,0.4,1.5c0.3,0.4,0.7,0.6,1.3,0.6c0.4,0,0.7,0,0.9-0.1
		s0.5-0.2,0.8-0.4l0.3,0.8c-0.2,0.1-0.5,0.3-0.8,0.4S92.9,203.2,92.4,203.2z M92.1,197.6c-0.4,0-0.7,0.2-1,0.5
		c-0.3,0.3-0.4,0.7-0.5,1.2l0,0h2.8v-0.1c0-0.5-0.1-0.8-0.3-1.1S92.5,197.6,92.1,197.6z"/>
	<path class="st0" d="M101.6,198.9l2.2-4.2h1.3l-2.9,5.4v2.9H101v-3l-2.9-5.3h1.3L101.6,198.9z"/>
	<path class="st0" d="M105.1,199.9c0-0.9,0.2-1.7,0.7-2.3c0.5-0.6,1.2-0.9,2-0.9c0.9,0,1.5,0.3,2,0.9c0.5,0.6,0.7,1.3,0.7,2.3v0.1
		c0,0.9-0.2,1.7-0.7,2.3c-0.5,0.6-1.2,0.9-2,0.9c-0.9,0-1.5-0.3-2-0.9c-0.5-0.6-0.7-1.3-0.7-2.3V199.9z M106.2,200
		c0,0.7,0.1,1.2,0.4,1.6c0.3,0.4,0.7,0.6,1.2,0.6c0.5,0,0.9-0.2,1.2-0.6c0.3-0.4,0.4-1,0.4-1.6v-0.1c0-0.6-0.1-1.2-0.4-1.6
		c-0.3-0.4-0.7-0.6-1.2-0.6c-0.5,0-0.9,0.2-1.2,0.6c-0.3,0.4-0.4,1-0.4,1.6V200z"/>
	<path class="st0" d="M116,202.1c-0.2,0.3-0.4,0.6-0.8,0.8c-0.3,0.2-0.7,0.3-1.1,0.3c-0.7,0-1.2-0.2-1.6-0.6c-0.4-0.4-0.6-1.1-0.6-2
		v-3.7h1.1v3.7c0,0.7,0.1,1.1,0.3,1.4c0.2,0.2,0.5,0.4,0.9,0.4c0.4,0,0.7-0.1,1-0.2c0.3-0.2,0.5-0.4,0.6-0.7v-4.5h1.1v6.2h-1
		L116,202.1z"/>
	<path class="st0" d="M121.6,197.8l-0.6,0c-0.3,0-0.5,0.1-0.8,0.2c-0.2,0.1-0.4,0.3-0.5,0.6v4.4h-1.1v-6.2h1l0.1,1
		c0.2-0.3,0.4-0.6,0.7-0.8c0.3-0.2,0.6-0.3,0.9-0.3c0.1,0,0.2,0,0.2,0c0.1,0,0.1,0,0.2,0L121.6,197.8z"/>
	<path class="st0" d="M126.4,201.4c0-0.2-0.1-0.5-0.3-0.6s-0.5-0.3-1.1-0.4c-0.7-0.2-1.3-0.4-1.7-0.7s-0.6-0.7-0.6-1.1
		c0-0.5,0.2-0.9,0.6-1.3c0.4-0.4,1-0.5,1.7-0.5c0.7,0,1.3,0.2,1.7,0.6s0.6,0.8,0.6,1.3l0,0h-1.1c0-0.3-0.1-0.5-0.4-0.7
		c-0.2-0.2-0.5-0.3-0.9-0.3c-0.4,0-0.7,0.1-0.9,0.3c-0.2,0.2-0.3,0.4-0.3,0.6c0,0.2,0.1,0.4,0.3,0.6c0.2,0.1,0.5,0.3,1.1,0.4
		c0.8,0.2,1.3,0.4,1.7,0.7s0.6,0.7,0.6,1.2c0,0.5-0.2,1-0.7,1.3c-0.4,0.3-1,0.5-1.7,0.5c-0.8,0-1.4-0.2-1.9-0.6
		c-0.5-0.4-0.7-0.9-0.6-1.4l0,0h1.1c0,0.4,0.2,0.7,0.4,0.9c0.3,0.2,0.6,0.3,1,0.3c0.4,0,0.7-0.1,0.9-0.3S126.4,201.6,126.4,201.4z"
		/>
	<path class="st0" d="M131.6,203.2c-0.9,0-1.6-0.3-2.2-0.9s-0.8-1.3-0.8-2.2v-0.3c0-0.9,0.3-1.6,0.8-2.2s1.1-0.9,1.9-0.9
		c0.8,0,1.4,0.3,1.9,0.8c0.4,0.5,0.6,1.2,0.6,2.1v0.6h-4l0,0c0,0.6,0.1,1.1,0.4,1.5c0.3,0.4,0.7,0.6,1.3,0.6c0.4,0,0.7,0,0.9-0.1
		s0.5-0.2,0.8-0.4l0.3,0.8c-0.2,0.1-0.5,0.3-0.8,0.4S132.1,203.2,131.6,203.2z M131.3,197.6c-0.4,0-0.7,0.2-1,0.5
		c-0.3,0.3-0.4,0.7-0.5,1.2l0,0h2.8v-0.1c0-0.5-0.1-0.8-0.3-1.1S131.8,197.6,131.3,197.6z"/>
	<path class="st0" d="M136.3,203h-1.1v-8.9h1.1V203z"/>
	<path class="st0" d="M138.3,203v-5.4h-1v-0.8h1v-0.8c0-0.7,0.2-1.2,0.5-1.5c0.3-0.4,0.8-0.5,1.4-0.5c0.1,0,0.3,0,0.4,0
		c0.1,0,0.3,0.1,0.4,0.1L141,195c-0.1,0-0.2,0-0.2,0c-0.1,0-0.2,0-0.3,0c-0.3,0-0.6,0.1-0.7,0.3c-0.2,0.2-0.2,0.5-0.2,0.9v0.8h1.1
		v0.8h-1.1v5.4H138.3z"/>
	<path class="st0" d="M142.8,203h-1.1v-1.2h1.1V203z"/>
	<path class="st0" d="M149.5,200.1l0.1,1.1l0,0l0.2-1.1l1.5-5.4h1.1l1.5,5.4l0.2,1.1h0l0.2-1.1l1.2-5.4h1.2l-2,8.3h-1l-1.7-5.8
		l-0.1-0.8h0l-0.1,0.8l-1.7,5.8h-1l-2-8.3h1.2L149.5,200.1z"/>
	<path class="st0" d="M160.1,203.2c-0.9,0-1.6-0.3-2.2-0.9c-0.5-0.6-0.8-1.3-0.8-2.2v-0.3c0-0.9,0.3-1.6,0.8-2.2s1.1-0.9,1.9-0.9
		c0.8,0,1.4,0.3,1.9,0.8c0.4,0.5,0.6,1.2,0.6,2.1v0.6h-4l0,0c0,0.6,0.1,1.1,0.4,1.5c0.3,0.4,0.7,0.6,1.3,0.6c0.4,0,0.7,0,0.9-0.1
		c0.2-0.1,0.5-0.2,0.8-0.4l0.3,0.8c-0.2,0.1-0.5,0.3-0.8,0.4S160.6,203.2,160.1,203.2z M159.8,197.6c-0.4,0-0.7,0.2-1,0.5
		c-0.3,0.3-0.4,0.7-0.5,1.2l0,0h2.8v-0.1c0-0.5-0.1-0.8-0.3-1.1C160.6,197.8,160.2,197.6,159.8,197.6z"/>
	<path class="st0" d="M166.6,203v-8.3h2.6c1.1,0,2,0.3,2.6,1c0.7,0.7,1,1.5,1,2.6v1.1c0,1.1-0.3,1.9-1,2.6s-1.5,1-2.6,1H166.6z
		 M167.7,195.6v6.6h1.5c0.8,0,1.4-0.3,1.8-0.8c0.4-0.5,0.7-1.2,0.7-2v-1.2c0-0.8-0.2-1.4-0.7-1.9c-0.4-0.5-1.1-0.8-1.8-0.8H167.7z"
		/>
	<path class="st0" d="M177.3,197.8l-0.6,0c-0.3,0-0.5,0.1-0.8,0.2c-0.2,0.1-0.4,0.3-0.5,0.6v4.4h-1.1v-6.2h1l0.1,1
		c0.2-0.3,0.4-0.6,0.7-0.8c0.3-0.2,0.6-0.3,0.9-0.3c0.1,0,0.2,0,0.2,0c0.1,0,0.1,0,0.2,0L177.3,197.8z"/>
	<path class="st0" d="M179.7,195.3h-1.1v-1.2h1.1V195.3z M179.7,203h-1.1v-6.2h1.1V203z"/>
	<path class="st0" d="M183.5,201.2l0.1,0.4h0l0.1-0.4l1.4-4.4h1.2L184,203h-0.9l-2.3-6.2h1.2L183.5,201.2z"/>
	<path class="st0" d="M189.8,203.2c-0.9,0-1.6-0.3-2.2-0.9s-0.8-1.3-0.8-2.2v-0.3c0-0.9,0.3-1.6,0.8-2.2c0.5-0.6,1.1-0.9,1.9-0.9
		c0.8,0,1.4,0.3,1.9,0.8c0.4,0.5,0.6,1.2,0.6,2.1v0.6h-4l0,0c0,0.6,0.1,1.1,0.4,1.5c0.3,0.4,0.7,0.6,1.3,0.6c0.4,0,0.7,0,0.9-0.1
		s0.5-0.2,0.8-0.4l0.3,0.8c-0.2,0.1-0.5,0.3-0.8,0.4C190.8,203.1,190.4,203.2,189.8,203.2z M189.5,197.6c-0.4,0-0.7,0.2-1,0.5
		c-0.3,0.3-0.4,0.7-0.5,1.2l0,0h2.8v-0.1c0-0.5-0.1-0.8-0.3-1.1S190,197.6,189.5,197.6z"/>
	<path class="st0" d="M199.1,198.9l2.2-4.2h1.3l-2.9,5.4v2.9h-1.1v-3l-2.9-5.3h1.3L199.1,198.9z"/>
	<path class="st0" d="M202.6,199.9c0-0.9,0.2-1.7,0.7-2.3c0.5-0.6,1.2-0.9,2-0.9c0.9,0,1.5,0.3,2,0.9c0.5,0.6,0.7,1.3,0.7,2.3v0.1
		c0,0.9-0.2,1.7-0.7,2.3c-0.5,0.6-1.2,0.9-2,0.9c-0.9,0-1.5-0.3-2-0.9c-0.5-0.6-0.7-1.3-0.7-2.3V199.9z M203.7,200
		c0,0.7,0.1,1.2,0.4,1.6s0.7,0.6,1.2,0.6c0.5,0,0.9-0.2,1.2-0.6c0.3-0.4,0.4-1,0.4-1.6v-0.1c0-0.6-0.1-1.2-0.4-1.6
		c-0.3-0.4-0.7-0.6-1.2-0.6c-0.5,0-0.9,0.2-1.2,0.6c-0.3,0.4-0.4,1-0.4,1.6V200z"/>
	<path class="st0" d="M213.5,202.1c-0.2,0.3-0.4,0.6-0.8,0.8c-0.3,0.2-0.7,0.3-1.1,0.3c-0.7,0-1.2-0.2-1.6-0.6
		c-0.4-0.4-0.6-1.1-0.6-2v-3.7h1.1v3.7c0,0.7,0.1,1.1,0.3,1.4c0.2,0.2,0.5,0.4,0.9,0.4c0.4,0,0.7-0.1,1-0.2c0.3-0.2,0.5-0.4,0.6-0.7
		v-4.5h1.1v6.2h-1L213.5,202.1z"/>
	<path class="st0" d="M219.1,197.8l-0.6,0c-0.3,0-0.5,0.1-0.8,0.2c-0.2,0.1-0.4,0.3-0.5,0.6v4.4h-1.1v-6.2h1l0.1,1
		c0.2-0.3,0.4-0.6,0.7-0.8c0.3-0.2,0.6-0.3,0.9-0.3c0.1,0,0.2,0,0.2,0c0.1,0,0.1,0,0.2,0L219.1,197.8z"/>
	<path class="st0" d="M229.3,200.4L229.3,200.4c0,0.8-0.2,1.5-0.8,2s-1.3,0.8-2.2,0.8c-0.9,0-1.7-0.3-2.3-1
		c-0.6-0.7-0.9-1.5-0.9-2.5v-1.5c0-1,0.3-1.9,0.9-2.5c0.6-0.7,1.4-1,2.3-1s1.7,0.3,2.3,0.8c0.6,0.5,0.8,1.2,0.8,2l0,0h-1.1
		c0-0.6-0.2-1-0.5-1.4s-0.8-0.5-1.5-0.5c-0.6,0-1.1,0.3-1.5,0.8s-0.6,1.1-0.6,1.9v1.5c0,0.8,0.2,1.4,0.6,1.9s0.9,0.8,1.5,0.8
		c0.6,0,1.1-0.2,1.5-0.5s0.5-0.8,0.5-1.4H229.3z"/>
	<path class="st0" d="M234.4,203c0-0.2-0.1-0.4-0.1-0.5c0-0.1,0-0.3,0-0.4c-0.2,0.3-0.5,0.5-0.8,0.7c-0.3,0.2-0.7,0.3-1.1,0.3
		c-0.6,0-1.1-0.2-1.5-0.5s-0.5-0.8-0.5-1.4c0-0.6,0.2-1.1,0.7-1.4c0.5-0.3,1.1-0.5,1.9-0.5h1.2v-0.6c0-0.4-0.1-0.7-0.3-0.9
		c-0.2-0.2-0.5-0.3-0.9-0.3c-0.4,0-0.7,0.1-0.9,0.3c-0.2,0.2-0.3,0.4-0.3,0.7l-1.1,0l0,0c0-0.5,0.2-0.9,0.6-1.2s1-0.6,1.7-0.6
		c0.7,0,1.3,0.2,1.7,0.5c0.4,0.4,0.6,0.9,0.6,1.5v3c0,0.2,0,0.4,0,0.6c0,0.2,0.1,0.4,0.1,0.6H234.4z M232.6,202.2
		c0.4,0,0.8-0.1,1.1-0.3c0.3-0.2,0.5-0.5,0.6-0.7v-1H233c-0.5,0-0.8,0.1-1.1,0.3c-0.3,0.2-0.4,0.5-0.4,0.8c0,0.3,0.1,0.5,0.3,0.7
		S232.2,202.2,232.6,202.2z"/>
	<path class="st0" d="M240,197.8l-0.6,0c-0.3,0-0.5,0.1-0.8,0.2c-0.2,0.1-0.4,0.3-0.5,0.6v4.4h-1.1v-6.2h1l0.1,1
		c0.2-0.3,0.4-0.6,0.7-0.8c0.3-0.2,0.6-0.3,0.9-0.3c0.1,0,0.2,0,0.2,0c0.1,0,0.1,0,0.2,0L240,197.8z"/>
	<path class="st0" d="M241.7,203h-1.1v-1.2h1.1V203z"/>
</g>
</svg>
